<?xml version="1.0" encoding="UTF-8" standalone="no"?>

<svg
   xmlns:dc="http://purl.org/dc/elements/1.1/"
   xmlns:cc="http://creativecommons.org/ns#"
   xmlns:rdf="http://www.w3.org/1999/02/22-rdf-syntax-ns#"
   xmlns:svg="http://www.w3.org/2000/svg"
   xmlns="http://www.w3.org/2000/svg"
   xmlns:sodipodi="http://sodipodi.sourceforge.net/DTD/sodipodi-0.dtd"
   width="1680mm"
   height="742.5mm"
   viewBox="0 0 1680 742.5"
   version="1.1"
   sodipodi:docname="table.svg">
  <defs/>
  <metadata>
    <rdf:RDF>
      <cc:Work
         rdf:about="">
        <dc:format>image/svg+xml</dc:format>
        <dc:type
           rdf:resource="http://purl.org/dc/dcmitype/StillImage" />
        <dc:title></dc:title>
      </cc:Work>
    </rdf:RDF>
  </metadata>
  <style>
	path { stroke: #DCDCE0; 
		   stroke-width:1; }
	.e { fill: none; }
	.f { fill: #DCDCE0; }
	
  </style>
  <rect width="100%" height="100%" fill="#454351" />
  <g
     transform="translate(0,445.5)">
    <g
       transform="translate(1277.2813,-37.005178)">
      <g
         transform="matrix(0.92602884,0,0,0.92602884,1.9041537,-56.897897)">
        <path
           class = "f"
           d="m 44.12,277.62 c 0,0 21.23,-17.71 21.23,-17.71 0,0 76,0.22 76,0.22 0,0 9.61,10.26 9.61,10.26 0,0 -12.39,10.52 -12.39,10.52 0,0 -90.69,0.15 -90.69,0.15 0,0 -3.76,-3.44 -3.76,-3.44 z" />
        <path
           class = "e"
           d="m 65.34,255.85 c 0,0 2.13,-15.41 2.13,-15.41 0,0 69.87,-52.76 69.87,-52.76 0,0 14.41,0.09 14.41,0.09 0,0 -1.89,14.43 -1.89,14.43 0,0 -69.37,53.51 -69.37,53.51 0,0 -15.15,0.14 -15.15,0.14 z" />
        <path
           class = "f"
           d="m 65.09,173.39 c 0,0 12.26,-10.48 12.26,-10.48 0,0 76,0.22 76,0.22 0,0 9.61,10.26 9.61,10.26 0,0 -12.39,10.52 -12.39,10.52 0,0 -75.66,-0.08 -75.66,-0.08 0,0 -9.82,-10.44 -9.82,-10.44 z" />
        <path
           class = "f"
           d="m 71.25,69.56 c 0,0 15.81,17.38 15.81,17.38 0,0 76.2,0.06 76.2,0.06 0,0 20.87,-17.52 20.87,-17.57 0,-0.04 -3.56,-3.47 -3.56,-3.47 0,0 -105.32,0.01 -105.32,0.01 0,0 -4,3.59 -4,3.59 z" />
        <path
           class = "f"
           d="m 61.82,169.73 c 0,0 -9.82,-8.46 -9.73,-8.46 0.09,0 11.18,-84.18 11.18,-84.18 0,0 4.37,-3.64 4.37,-3.64 0,0 15.27,15.64 15.27,15.64 0,0 -9.73,71.09 -9.73,71.09 0,0 -11.36,9.55 -11.36,9.55 z" />
        <path
           class = "f"
           d="m 60.83,176.7 c 0,0 -11.44,9.52 -11.44,9.52 0,0 -10.87,83.65 -10.87,83.65 0,0 2.65,3.83 2.65,3.83 0,0 19.79,-16.27 19.79,-16.27 0,0 9.06,-71.39 9.08,-71.39 0.03,0 -9.21,-9.34 -9.21,-9.34 z" />
        <path
           class = "e"
           d="m 32.91,374.13 c 0,0 3.09,3.52 3.09,3.52 0,0 105.57,-0.08 105.57,-0.08 0,0 3.56,-3.61 3.56,-3.61 0,0 -15.52,-16.87 -15.52,-16.87 0,0 -76.44,0.13 -76.44,0.13 0,0 -20.26,16.91 -20.26,16.91 z" />
        <path
           class = "e"
           d="m 154.65,274 c 0,0 -11.95,9.65 -11.95,9.65 0,0 -8.79,70.96 -8.79,70.96 0,0 15.22,16.09 15.22,16.09 0,0 3.78,-4.32 3.78,-4.32 0,0 10.34,-83.29 10.34,-83.32 0,-0.03 -8.6,-9.06 -8.6,-9.06 z" />
        <path
           class = "e"
           d="m 167.65,177 c 0,0 -11.95,9.65 -11.95,9.65 0,0 -9.2,72.6 -9.2,72.6 0,0 8.69,8.5 8.69,8.5 0,0 11.81,-9.19 11.81,-9.19 0,0 9.25,-72.47 9.25,-72.5 0,-0.03 -8.6,-9.06 -8.6,-9.06 z" />
        <path
           class = "e"
           d="m 186.38,73.06 c 0,0 3.56,3.69 3.56,3.69 0,0 -10.5,82.63 -10.5,82.63 0,0 -11.82,10.5 -11.82,10.5 0,0 -9.24,-9.26 -9.24,-9.26 0,0 8.56,-71.24 8.56,-71.24 0,0 19.44,-16.32 19.44,-16.32 z" />
      </g>
    </g>
    <g
       transform="translate(11.958158,-408.49482)">
      <g
         transform="matrix(0.92602884,0,0,0.92602884,1.9041537,-56.897897)">
        <path
           class = "f"
           d="m 44.12,277.62 c 0,0 21.23,-17.71 21.23,-17.71 0,0 76,0.22 76,0.22 0,0 9.61,10.26 9.61,10.26 0,0 -12.39,10.52 -12.39,10.52 0,0 -90.69,0.15 -90.69,0.15 0,0 -3.76,-3.44 -3.76,-3.44 z" />
        <path
           class = "f"
           d="m 65.34,255.85 c 0,0 2.13,-15.41 2.13,-15.41 0,0 69.87,-52.76 69.87,-52.76 0,0 14.41,0.09 14.41,0.09 0,0 -1.89,14.43 -1.89,14.43 0,0 -69.37,53.51 -69.37,53.51 0,0 -15.15,0.14 -15.15,0.14 z" />
        <path
           class = "f"
           d="m 65.09,173.39 c 0,0 12.26,-10.48 12.26,-10.48 0,0 76,0.22 76,0.22 0,0 9.61,10.26 9.61,10.26 0,0 -12.39,10.52 -12.39,10.52 0,0 -75.66,-0.08 -75.66,-0.08 0,0 -9.82,-10.44 -9.82,-10.44 z" />
        <path
           class = "f"
           d="m 71.25,69.56 c 0,0 15.81,17.38 15.81,17.38 0,0 76.2,0.06 76.2,0.06 0,0 20.87,-17.52 20.87,-17.57 0,-0.04 -3.56,-3.47 -3.56,-3.47 0,0 -105.32,0.01 -105.32,0.01 0,0 -4,3.59 -4,3.59 z" />
        <path
           class = "f"
           d="m 61.82,169.73 c 0,0 -9.82,-8.46 -9.73,-8.46 0.09,0 11.18,-84.18 11.18,-84.18 0,0 4.37,-3.64 4.37,-3.64 0,0 15.27,15.64 15.27,15.64 0,0 -9.73,71.09 -9.73,71.09 0,0 -11.36,9.55 -11.36,9.55 z" />
        <path
           class = "f"
           d="m 60.83,176.7 c 0,0 -11.44,9.52 -11.44,9.52 0,0 -10.87,83.65 -10.87,83.65 0,0 2.65,3.83 2.65,3.83 0,0 19.79,-16.27 19.79,-16.27 0,0 9.06,-71.39 9.08,-71.39 0.03,0 -9.21,-9.34 -9.21,-9.34 z" />
        <path
           class = "f"
           d="m 32.91,374.13 c 0,0 3.09,3.52 3.09,3.52 0,0 105.57,-0.08 105.57,-0.08 0,0 3.56,-3.61 3.56,-3.61 0,0 -15.52,-16.87 -15.52,-16.87 0,0 -76.44,0.13 -76.44,0.13 0,0 -20.26,16.91 -20.26,16.91 z" />
        <path
           class = "f"
           d="m 154.65,274 c 0,0 -11.95,9.65 -11.95,9.65 0,0 -8.79,70.96 -8.79,70.96 0,0 15.22,16.09 15.22,16.09 0,0 3.78,-4.32 3.78,-4.32 0,0 10.34,-83.29 10.34,-83.32 0,-0.03 -8.6,-9.06 -8.6,-9.06 z" />
        <path
           class = "f"
           d="m 167.65,177 c 0,0 -11.95,9.65 -11.95,9.65 0,0 -9.2,72.6 -9.2,72.6 0,0 8.69,8.5 8.69,8.5 0,0 11.81,-9.19 11.81,-9.19 0,0 9.25,-72.47 9.25,-72.5 0,-0.03 -8.6,-9.06 -8.6,-9.06 z" />
        <path
           class = "f"
           d="m 186.38,73.06 c 0,0 3.56,3.69 3.56,3.69 0,0 -10.5,82.63 -10.5,82.63 0,0 -11.82,10.5 -11.82,10.5 0,0 -9.24,-9.26 -9.24,-9.26 0,0 8.56,-71.24 8.56,-71.24 0,0 19.44,-16.32 19.44,-16.32 z" />
      </g>
    </g>
    <g
       transform="translate(1096.5208,-37.005178)">
      <g
         transform="matrix(0.92602884,0,0,0.92602884,1.9041537,-56.897897)">
        <path
           class = "e"
           d="m 44.12,277.62 c 0,0 21.23,-17.71 21.23,-17.71 0,0 76,0.22 76,0.22 0,0 9.61,10.26 9.61,10.26 0,0 -12.39,10.52 -12.39,10.52 0,0 -90.69,0.15 -90.69,0.15 0,0 -3.76,-3.44 -3.76,-3.44 z" />
        <path
           class = "f"
           d="m 65.34,255.85 c 0,0 2.13,-15.41 2.13,-15.41 0,0 69.87,-52.76 69.87,-52.76 0,0 14.41,0.09 14.41,0.09 0,0 -1.89,14.43 -1.89,14.43 0,0 -69.37,53.51 -69.37,53.51 0,0 -15.15,0.14 -15.15,0.14 z" />
        <path
           class = "e"
           d="m 65.09,173.39 c 0,0 12.26,-10.48 12.26,-10.48 0,0 76,0.22 76,0.22 0,0 9.61,10.26 9.61,10.26 0,0 -12.39,10.52 -12.39,10.52 0,0 -75.66,-0.08 -75.66,-0.08 0,0 -9.82,-10.44 -9.82,-10.44 z" />
        <path
           class = "f"
           d="m 71.25,69.56 c 0,0 15.81,17.38 15.81,17.38 0,0 76.2,0.06 76.2,0.06 0,0 20.87,-17.52 20.87,-17.57 0,-0.04 -3.56,-3.47 -3.56,-3.47 0,0 -105.32,0.01 -105.32,0.01 0,0 -4,3.59 -4,3.59 z" />
        <path
           class = "f"
           d="m 61.82,169.73 c 0,0 -9.82,-8.46 -9.73,-8.46 0.09,0 11.18,-84.18 11.18,-84.18 0,0 4.37,-3.64 4.37,-3.64 0,0 15.27,15.64 15.27,15.64 0,0 -9.73,71.09 -9.73,71.09 0,0 -11.36,9.55 -11.36,9.55 z" />
        <path
           class = "f"
           d="m 60.83,176.7 c 0,0 -11.44,9.52 -11.44,9.52 0,0 -10.87,83.65 -10.87,83.65 0,0 2.65,3.83 2.65,3.83 0,0 19.79,-16.27 19.79,-16.27 0,0 9.06,-71.39 9.08,-71.39 0.03,0 -9.21,-9.34 -9.21,-9.34 z" />
        <path
           class = "e"
           d="m 32.91,374.13 c 0,0 3.09,3.52 3.09,3.52 0,0 105.57,-0.08 105.57,-0.08 0,0 3.56,-3.61 3.56,-3.61 0,0 -15.52,-16.87 -15.52,-16.87 0,0 -76.44,0.13 -76.44,0.13 0,0 -20.26,16.91 -20.26,16.91 z" />
        <path
           class = "e"
           d="m 154.65,274 c 0,0 -11.95,9.65 -11.95,9.65 0,0 -8.79,70.96 -8.79,70.96 0,0 15.22,16.09 15.22,16.09 0,0 3.78,-4.32 3.78,-4.32 0,0 10.34,-83.29 10.34,-83.32 0,-0.03 -8.6,-9.06 -8.6,-9.06 z" />
        <path
           class = "e"
           d="m 167.65,177 c 0,0 -11.95,9.65 -11.95,9.65 0,0 -9.2,72.6 -9.2,72.6 0,0 8.69,8.5 8.69,8.5 0,0 11.81,-9.19 11.81,-9.19 0,0 9.25,-72.47 9.25,-72.5 0,-0.03 -8.6,-9.06 -8.6,-9.06 z" />
        <path
           class = "f"
           d="m 186.38,73.06 c 0,0 3.56,3.69 3.56,3.69 0,0 -10.5,82.63 -10.5,82.63 0,0 -11.82,10.5 -11.82,10.5 0,0 -9.24,-9.26 -9.24,-9.26 0,0 8.56,-71.24 8.56,-71.24 0,0 19.44,-16.32 19.44,-16.32 z" />
      </g>
    </g>
    <g
       transform="translate(915.76049,-37.005178)">
      <g
         transform="matrix(0.92602884,0,0,0.92602884,1.9041537,-56.897897)">
        <path
           class = "f"
           d="m 44.12,277.62 c 0,0 21.23,-17.71 21.23,-17.71 0,0 76,0.22 76,0.22 0,0 9.61,10.26 9.61,10.26 0,0 -12.39,10.52 -12.39,10.52 0,0 -90.69,0.15 -90.69,0.15 0,0 -3.76,-3.44 -3.76,-3.44 z" />
        <path
           class = "e"
           d="m 65.34,255.85 c 0,0 2.13,-15.41 2.13,-15.41 0,0 69.87,-52.76 69.87,-52.76 0,0 14.41,0.09 14.41,0.09 0,0 -1.89,14.43 -1.89,14.43 0,0 -69.37,53.51 -69.37,53.51 0,0 -15.15,0.14 -15.15,0.14 z" />
        <path
           class = "e"
           d="m 65.09,173.39 c 0,0 12.26,-10.48 12.26,-10.48 0,0 76,0.22 76,0.22 0,0 9.61,10.26 9.61,10.26 0,0 -12.39,10.52 -12.39,10.52 0,0 -75.66,-0.08 -75.66,-0.08 0,0 -9.82,-10.44 -9.82,-10.44 z" />
        <path
           class = "f"
           d="m 71.25,69.56 c 0,0 15.81,17.38 15.81,17.38 0,0 76.2,0.06 76.2,0.06 0,0 20.87,-17.52 20.87,-17.57 0,-0.04 -3.56,-3.47 -3.56,-3.47 0,0 -105.32,0.01 -105.32,0.01 0,0 -4,3.59 -4,3.59 z" />
        <path
           class = "f"
           d="m 61.82,169.73 c 0,0 -9.82,-8.46 -9.73,-8.46 0.09,0 11.18,-84.18 11.18,-84.18 0,0 4.37,-3.64 4.37,-3.64 0,0 15.27,15.64 15.27,15.64 0,0 -9.73,71.09 -9.73,71.09 0,0 -11.36,9.55 -11.36,9.55 z" />
        <path
           class = "f"
           d="m 60.83,176.7 c 0,0 -11.44,9.52 -11.44,9.52 0,0 -10.87,83.65 -10.87,83.65 0,0 2.65,3.83 2.65,3.83 0,0 19.79,-16.27 19.79,-16.27 0,0 9.06,-71.39 9.08,-71.39 0.03,0 -9.21,-9.34 -9.21,-9.34 z" />
        <path
           class = "e"
           d="m 32.91,374.13 c 0,0 3.09,3.52 3.09,3.52 0,0 105.57,-0.08 105.57,-0.08 0,0 3.56,-3.61 3.56,-3.61 0,0 -15.52,-16.87 -15.52,-16.87 0,0 -76.44,0.13 -76.44,0.13 0,0 -20.26,16.91 -20.26,16.91 z" />
        <path
           class = "e"
           d="m 154.65,274 c 0,0 -11.95,9.65 -11.95,9.65 0,0 -8.79,70.96 -8.79,70.96 0,0 15.22,16.09 15.22,16.09 0,0 3.78,-4.32 3.78,-4.32 0,0 10.34,-83.29 10.34,-83.32 0,-0.03 -8.6,-9.06 -8.6,-9.06 z" />
        <path
           class = "e"
           d="m 167.65,177 c 0,0 -11.95,9.65 -11.95,9.65 0,0 -9.2,72.6 -9.2,72.6 0,0 8.69,8.5 8.69,8.5 0,0 11.81,-9.19 11.81,-9.19 0,0 9.25,-72.47 9.25,-72.5 0,-0.03 -8.6,-9.06 -8.6,-9.06 z" />
        <path
           class = "e"
           d="m 186.38,73.06 c 0,0 3.56,3.69 3.56,3.69 0,0 -10.5,82.63 -10.5,82.63 0,0 -11.82,10.5 -11.82,10.5 0,0 -9.24,-9.26 -9.24,-9.26 0,0 8.56,-71.24 8.56,-71.24 0,0 19.44,-16.32 19.44,-16.32 z" />
      </g>
    </g>
    <g
       transform="translate(735.00002,-37.005178)">
      <g
         transform="matrix(0.92602884,0,0,0.92602884,1.9041537,-56.897897)">
        <path
           class = "e"
           d="m 44.12,277.62 c 0,0 21.23,-17.71 21.23,-17.71 0,0 76,0.22 76,0.22 0,0 9.61,10.26 9.61,10.26 0,0 -12.39,10.52 -12.39,10.52 0,0 -90.69,0.15 -90.69,0.15 0,0 -3.76,-3.44 -3.76,-3.44 z" />
        <path
           class = "f"
           d="m 65.34,255.85 c 0,0 2.13,-15.41 2.13,-15.41 0,0 69.87,-52.76 69.87,-52.76 0,0 14.41,0.09 14.41,0.09 0,0 -1.89,14.43 -1.89,14.43 0,0 -69.37,53.51 -69.37,53.51 0,0 -15.15,0.14 -15.15,0.14 z" />
        <path
           class = "f"
           d="m 65.09,173.39 c 0,0 12.26,-10.48 12.26,-10.48 0,0 76,0.22 76,0.22 0,0 9.61,10.26 9.61,10.26 0,0 -12.39,10.52 -12.39,10.52 0,0 -75.66,-0.08 -75.66,-0.08 0,0 -9.82,-10.44 -9.82,-10.44 z" />
        <path
           class = "f"
           d="m 71.25,69.56 c 0,0 15.81,17.38 15.81,17.38 0,0 76.2,0.06 76.2,0.06 0,0 20.87,-17.52 20.87,-17.57 0,-0.04 -3.56,-3.47 -3.56,-3.47 0,0 -105.32,0.01 -105.32,0.01 0,0 -4,3.59 -4,3.59 z" />
        <path
           class = "f"
           d="m 61.82,169.73 c 0,0 -9.82,-8.46 -9.73,-8.46 0.09,0 11.18,-84.18 11.18,-84.18 0,0 4.37,-3.64 4.37,-3.64 0,0 15.27,15.64 15.27,15.64 0,0 -9.73,71.09 -9.73,71.09 0,0 -11.36,9.55 -11.36,9.55 z" />
        <path
           class = "f"
           d="m 60.83,176.7 c 0,0 -11.44,9.52 -11.44,9.52 0,0 -10.87,83.65 -10.87,83.65 0,0 2.65,3.83 2.65,3.83 0,0 19.79,-16.27 19.79,-16.27 0,0 9.06,-71.39 9.08,-71.39 0.03,0 -9.21,-9.34 -9.21,-9.34 z" />
        <path
           class = "e"
           d="m 32.91,374.13 c 0,0 3.09,3.52 3.09,3.52 0,0 105.57,-0.08 105.57,-0.08 0,0 3.56,-3.61 3.56,-3.61 0,0 -15.52,-16.87 -15.52,-16.87 0,0 -76.44,0.13 -76.44,0.13 0,0 -20.26,16.91 -20.26,16.91 z" />
        <path
           class = "e"
           d="m 154.65,274 c 0,0 -11.95,9.65 -11.95,9.65 0,0 -8.79,70.96 -8.79,70.96 0,0 15.22,16.09 15.22,16.09 0,0 3.78,-4.32 3.78,-4.32 0,0 10.34,-83.29 10.34,-83.32 0,-0.03 -8.6,-9.06 -8.6,-9.06 z" />
        <path
           class = "e"
           d="m 167.65,177 c 0,0 -11.95,9.65 -11.95,9.65 0,0 -9.2,72.6 -9.2,72.6 0,0 8.69,8.5 8.69,8.5 0,0 11.81,-9.19 11.81,-9.19 0,0 9.25,-72.47 9.25,-72.5 0,-0.03 -8.6,-9.06 -8.6,-9.06 z" />
        <path
           class = "f"
           d="m 186.38,73.06 c 0,0 3.56,3.69 3.56,3.69 0,0 -10.5,82.63 -10.5,82.63 0,0 -11.82,10.5 -11.82,10.5 0,0 -9.24,-9.26 -9.24,-9.26 0,0 8.56,-71.24 8.56,-71.24 0,0 19.44,-16.32 19.44,-16.32 z" />
      </g>
    </g>
    <g
       transform="translate(554.23953,-37.005178)">
      <g
         transform="matrix(0.92602884,0,0,0.92602884,1.9041537,-56.897897)">
        <path
           class = "e"
           d="m 44.12,277.62 c 0,0 21.23,-17.71 21.23,-17.71 0,0 76,0.22 76,0.22 0,0 9.61,10.26 9.61,10.26 0,0 -12.39,10.52 -12.39,10.52 0,0 -90.69,0.15 -90.69,0.15 0,0 -3.76,-3.44 -3.76,-3.44 z" />
        <path
           class = "e"
           d="m 65.34,255.85 c 0,0 2.13,-15.41 2.13,-15.41 0,0 69.87,-52.76 69.87,-52.76 0,0 14.41,0.09 14.41,0.09 0,0 -1.89,14.43 -1.89,14.43 0,0 -69.37,53.51 -69.37,53.51 0,0 -15.15,0.14 -15.15,0.14 z" />
        <path
           class = "f"
           d="m 65.09,173.39 c 0,0 12.26,-10.48 12.26,-10.48 0,0 76,0.22 76,0.22 0,0 9.61,10.26 9.61,10.26 0,0 -12.39,10.52 -12.39,10.52 0,0 -75.66,-0.08 -75.66,-0.08 0,0 -9.82,-10.44 -9.82,-10.44 z" />
        <path
           class = "f"
           d="m 71.25,69.56 c 0,0 15.81,17.38 15.81,17.38 0,0 76.2,0.06 76.2,0.06 0,0 20.87,-17.52 20.87,-17.57 0,-0.04 -3.56,-3.47 -3.56,-3.47 0,0 -105.32,0.01 -105.32,0.01 0,0 -4,3.59 -4,3.59 z" />
        <path
           class = "f"
           d="m 61.82,169.73 c 0,0 -9.82,-8.46 -9.73,-8.46 0.09,0 11.18,-84.18 11.18,-84.18 0,0 4.37,-3.64 4.37,-3.64 0,0 15.27,15.64 15.27,15.64 0,0 -9.73,71.09 -9.73,71.09 0,0 -11.36,9.55 -11.36,9.55 z" />
        <path
           class = "f"
           d="m 60.83,176.7 c 0,0 -11.44,9.52 -11.44,9.52 0,0 -10.87,83.65 -10.87,83.65 0,0 2.65,3.83 2.65,3.83 0,0 19.79,-16.27 19.79,-16.27 0,0 9.06,-71.39 9.08,-71.39 0.03,0 -9.21,-9.34 -9.21,-9.34 z" />
        <path
           class = "e"
           d="m 32.91,374.13 c 0,0 3.09,3.52 3.09,3.52 0,0 105.57,-0.08 105.57,-0.08 0,0 3.56,-3.61 3.56,-3.61 0,0 -15.52,-16.87 -15.52,-16.87 0,0 -76.44,0.13 -76.44,0.13 0,0 -20.26,16.91 -20.26,16.91 z" />
        <path
           class = "e"
           d="m 154.65,274 c 0,0 -11.95,9.65 -11.95,9.65 0,0 -8.79,70.96 -8.79,70.96 0,0 15.22,16.09 15.22,16.09 0,0 3.78,-4.32 3.78,-4.32 0,0 10.34,-83.29 10.34,-83.32 0,-0.03 -8.6,-9.06 -8.6,-9.06 z" />
        <path
           class = "f"
           d="m 167.65,177 c 0,0 -11.95,9.65 -11.95,9.65 0,0 -9.2,72.6 -9.2,72.6 0,0 8.69,8.5 8.69,8.5 0,0 11.81,-9.19 11.81,-9.19 0,0 9.25,-72.47 9.25,-72.5 0,-0.03 -8.6,-9.06 -8.6,-9.06 z" />
        <path
           class = "f"
           d="m 186.38,73.06 c 0,0 3.56,3.69 3.56,3.69 0,0 -10.5,82.63 -10.5,82.63 0,0 -11.82,10.5 -11.82,10.5 0,0 -9.24,-9.26 -9.24,-9.26 0,0 8.56,-71.24 8.56,-71.24 0,0 19.44,-16.32 19.44,-16.32 z" />
      </g>
    </g>
    <g
       transform="translate(373.47909,-37.005178)">
      <g
         transform="matrix(0.92602884,0,0,0.92602884,1.9041537,-56.897897)">
        <path
           class = "f"
           d="m 44.12,277.62 c 0,0 21.23,-17.71 21.23,-17.71 0,0 76,0.22 76,0.22 0,0 9.61,10.26 9.61,10.26 0,0 -12.39,10.52 -12.39,10.52 0,0 -90.69,0.15 -90.69,0.15 0,0 -3.76,-3.44 -3.76,-3.44 z" />
        <path
           class = "e"
           d="m 65.34,255.85 c 0,0 2.13,-15.41 2.13,-15.41 0,0 69.87,-52.76 69.87,-52.76 0,0 14.41,0.09 14.41,0.09 0,0 -1.89,14.43 -1.89,14.43 0,0 -69.37,53.51 -69.37,53.51 0,0 -15.15,0.14 -15.15,0.14 z" />
        <path
           class = "f"
           d="m 65.09,173.39 c 0,0 12.26,-10.48 12.26,-10.48 0,0 76,0.22 76,0.22 0,0 9.61,10.26 9.61,10.26 0,0 -12.39,10.52 -12.39,10.52 0,0 -75.66,-0.08 -75.66,-0.08 0,0 -9.82,-10.44 -9.82,-10.44 z" />
        <path
           class = "e"
           d="m 71.25,69.56 c 0,0 15.81,17.38 15.81,17.38 0,0 76.2,0.06 76.2,0.06 0,0 20.87,-17.52 20.87,-17.57 0,-0.04 -3.56,-3.47 -3.56,-3.47 0,0 -105.32,0.01 -105.32,0.01 0,0 -4,3.59 -4,3.59 z" />
        <path
           class = "e"
           d="m 61.82,169.73 c 0,0 -9.82,-8.46 -9.73,-8.46 0.09,0 11.18,-84.18 11.18,-84.18 0,0 4.37,-3.64 4.37,-3.64 0,0 15.27,15.64 15.27,15.64 0,0 -9.73,71.09 -9.73,71.09 0,0 -11.36,9.55 -11.36,9.55 z" />
        <path
           class = "f"
           d="m 60.83,176.7 c 0,0 -11.44,9.52 -11.44,9.52 0,0 -10.87,83.65 -10.87,83.65 0,0 2.65,3.83 2.65,3.83 0,0 19.79,-16.27 19.79,-16.27 0,0 9.06,-71.39 9.08,-71.39 0.03,0 -9.21,-9.34 -9.21,-9.34 z" />
        <path
           class = "f"
           d="m 32.91,374.13 c 0,0 3.09,3.52 3.09,3.52 0,0 105.57,-0.08 105.57,-0.08 0,0 3.56,-3.61 3.56,-3.61 0,0 -15.52,-16.87 -15.52,-16.87 0,0 -76.44,0.13 -76.44,0.13 0,0 -20.26,16.91 -20.26,16.91 z" />
        <path
           class = "f"
           d="m 154.65,274 c 0,0 -11.95,9.65 -11.95,9.65 0,0 -8.79,70.96 -8.79,70.96 0,0 15.22,16.09 15.22,16.09 0,0 3.78,-4.32 3.78,-4.32 0,0 10.34,-83.29 10.34,-83.32 0,-0.03 -8.6,-9.06 -8.6,-9.06 z" />
        <path
           class = "f"
           d="m 167.65,177 c 0,0 -11.95,9.65 -11.95,9.65 0,0 -9.2,72.6 -9.2,72.6 0,0 8.69,8.5 8.69,8.5 0,0 11.81,-9.19 11.81,-9.19 0,0 9.25,-72.47 9.25,-72.5 0,-0.03 -8.6,-9.06 -8.6,-9.06 z" />
        <path
           class = "e"
           d="m 186.38,73.06 c 0,0 3.56,3.69 3.56,3.69 0,0 -10.5,82.63 -10.5,82.63 0,0 -11.82,10.5 -11.82,10.5 0,0 -9.24,-9.26 -9.24,-9.26 0,0 8.56,-71.24 8.56,-71.24 0,0 19.44,-16.32 19.44,-16.32 z" />
      </g>
    </g>
    <g
       transform="translate(192.71862,-37.005178)">
      <g
         transform="matrix(0.92602884,0,0,0.92602884,1.9041537,-56.897897)">
        <path
           class = "f"
           d="m 44.12,277.62 c 0,0 21.23,-17.71 21.23,-17.71 0,0 76,0.22 76,0.22 0,0 9.61,10.26 9.61,10.26 0,0 -12.39,10.52 -12.39,10.52 0,0 -90.69,0.15 -90.69,0.15 0,0 -3.76,-3.44 -3.76,-3.44 z" />
        <path
           class = "e"
           d="m 65.34,255.85 c 0,0 2.13,-15.41 2.13,-15.41 0,0 69.87,-52.76 69.87,-52.76 0,0 14.41,0.09 14.41,0.09 0,0 -1.89,14.43 -1.89,14.43 0,0 -69.37,53.51 -69.37,53.51 0,0 -15.15,0.14 -15.15,0.14 z" />
        <path
           class = "f"
           d="m 65.09,173.39 c 0,0 12.26,-10.48 12.26,-10.48 0,0 76,0.22 76,0.22 0,0 9.61,10.26 9.61,10.26 0,0 -12.39,10.52 -12.39,10.52 0,0 -75.66,-0.08 -75.66,-0.08 0,0 -9.82,-10.44 -9.82,-10.44 z" />
        <path
           class = "f"
           d="m 71.25,69.56 c 0,0 15.81,17.38 15.81,17.38 0,0 76.2,0.06 76.2,0.06 0,0 20.87,-17.52 20.87,-17.57 0,-0.04 -3.56,-3.47 -3.56,-3.47 0,0 -105.32,0.01 -105.32,0.01 0,0 -4,3.59 -4,3.59 z" />
        <path
           class = "f"
           d="m 61.82,169.73 c 0,0 -9.82,-8.46 -9.73,-8.46 0.09,0 11.18,-84.18 11.18,-84.18 0,0 4.37,-3.64 4.37,-3.64 0,0 15.27,15.64 15.27,15.64 0,0 -9.73,71.09 -9.73,71.09 0,0 -11.36,9.55 -11.36,9.55 z" />
        <path
           class = "f"
           d="m 60.83,176.7 c 0,0 -11.44,9.52 -11.44,9.52 0,0 -10.87,83.65 -10.87,83.65 0,0 2.65,3.83 2.65,3.83 0,0 19.79,-16.27 19.79,-16.27 0,0 9.06,-71.39 9.08,-71.39 0.03,0 -9.21,-9.34 -9.21,-9.34 z" />
        <path
           class = "e"
           d="m 32.91,374.13 c 0,0 3.09,3.52 3.09,3.52 0,0 105.57,-0.08 105.57,-0.08 0,0 3.56,-3.61 3.56,-3.61 0,0 -15.52,-16.87 -15.52,-16.87 0,0 -76.44,0.13 -76.44,0.13 0,0 -20.26,16.91 -20.26,16.91 z" />
        <path
           class = "e"
           d="m 154.65,274 c 0,0 -11.95,9.65 -11.95,9.65 0,0 -8.79,70.96 -8.79,70.96 0,0 15.22,16.09 15.22,16.09 0,0 3.78,-4.32 3.78,-4.32 0,0 10.34,-83.29 10.34,-83.32 0,-0.03 -8.6,-9.06 -8.6,-9.06 z" />
        <path
           class = "f"
           d="m 167.65,177 c 0,0 -11.95,9.65 -11.95,9.65 0,0 -9.2,72.6 -9.2,72.6 0,0 8.69,8.5 8.69,8.5 0,0 11.81,-9.19 11.81,-9.19 0,0 9.25,-72.47 9.25,-72.5 0,-0.03 -8.6,-9.06 -8.6,-9.06 z" />
        <path
           class = "f"
           d="m 186.38,73.06 c 0,0 3.56,3.69 3.56,3.69 0,0 -10.5,82.63 -10.5,82.63 0,0 -11.82,10.5 -11.82,10.5 0,0 -9.24,-9.26 -9.24,-9.26 0,0 8.56,-71.24 8.56,-71.24 0,0 19.44,-16.32 19.44,-16.32 z" />
      </g>
    </g>
    <g
       transform="translate(1458.0418,-408.49482)">
      <g
         transform="matrix(0.92602884,0,0,0.92602884,1.9041537,-56.897897)">
        <path
           class = "e"
           d="m 44.12,277.62 c 0,0 21.23,-17.71 21.23,-17.71 0,0 76,0.22 76,0.22 0,0 9.61,10.26 9.61,10.26 0,0 -12.39,10.52 -12.39,10.52 0,0 -90.69,0.15 -90.69,0.15 0,0 -3.76,-3.44 -3.76,-3.44 z" />
        <path
           class = "e"
           d="m 65.34,255.85 c 0,0 2.13,-15.41 2.13,-15.41 0,0 69.87,-52.76 69.87,-52.76 0,0 14.41,0.09 14.41,0.09 0,0 -1.89,14.43 -1.89,14.43 0,0 -69.37,53.51 -69.37,53.51 0,0 -15.15,0.14 -15.15,0.14 z" />
        <path
           class = "f"
           d="m 65.09,173.39 c 0,0 12.26,-10.48 12.26,-10.48 0,0 76,0.22 76,0.22 0,0 9.61,10.26 9.61,10.26 0,0 -12.39,10.52 -12.39,10.52 0,0 -75.66,-0.08 -75.66,-0.08 0,0 -9.82,-10.44 -9.82,-10.44 z" />
        <path
           class = "e"
           d="m 71.25,69.56 c 0,0 15.81,17.38 15.81,17.38 0,0 76.2,0.06 76.2,0.06 0,0 20.87,-17.52 20.87,-17.57 0,-0.04 -3.56,-3.47 -3.56,-3.47 0,0 -105.32,0.01 -105.32,0.01 0,0 -4,3.59 -4,3.59 z" />
        <path
           class = "e"
           d="m 61.82,169.73 c 0,0 -9.82,-8.46 -9.73,-8.46 0.09,0 11.18,-84.18 11.18,-84.18 0,0 4.37,-3.64 4.37,-3.64 0,0 15.27,15.64 15.27,15.64 0,0 -9.73,71.09 -9.73,71.09 0,0 -11.36,9.55 -11.36,9.55 z" />
        <path
           class = "f"
           d="m 60.83,176.7 c 0,0 -11.44,9.52 -11.44,9.52 0,0 -10.87,83.65 -10.87,83.65 0,0 2.65,3.83 2.65,3.83 0,0 19.79,-16.27 19.79,-16.27 0,0 9.06,-71.39 9.08,-71.39 0.03,0 -9.21,-9.34 -9.21,-9.34 z" />
        <path
           class = "e"
           d="m 32.91,374.13 c 0,0 3.09,3.52 3.09,3.52 0,0 105.57,-0.08 105.57,-0.08 0,0 3.56,-3.61 3.56,-3.61 0,0 -15.52,-16.87 -15.52,-16.87 0,0 -76.44,0.13 -76.44,0.13 0,0 -20.26,16.91 -20.26,16.91 z" />
        <path
           class = "f"
           d="m 154.65,274 c 0,0 -11.95,9.65 -11.95,9.65 0,0 -8.79,70.96 -8.79,70.96 0,0 15.22,16.09 15.22,16.09 0,0 3.78,-4.32 3.78,-4.32 0,0 10.34,-83.29 10.34,-83.32 0,-0.03 -8.6,-9.06 -8.6,-9.06 z" />
        <path
           class = "f"
           d="m 167.65,177 c 0,0 -11.95,9.65 -11.95,9.65 0,0 -9.2,72.6 -9.2,72.6 0,0 8.69,8.5 8.69,8.5 0,0 11.81,-9.19 11.81,-9.19 0,0 9.25,-72.47 9.25,-72.5 0,-0.03 -8.6,-9.06 -8.6,-9.06 z" />
        <path
           class = "e"
           d="m 186.38,73.06 c 0,0 3.56,3.69 3.56,3.69 0,0 -10.5,82.63 -10.5,82.63 0,0 -11.82,10.5 -11.82,10.5 0,0 -9.24,-9.26 -9.24,-9.26 0,0 8.56,-71.24 8.56,-71.24 0,0 19.44,-16.32 19.44,-16.32 z" />
      </g>
    </g>
    <g
       transform="translate(1277.2814,-408.49482)">
      <g
         transform="matrix(0.92602884,0,0,0.92602884,1.9041537,-56.897897)">
        <path
           class = "f"
           d="m 44.12,277.62 c 0,0 21.23,-17.71 21.23,-17.71 0,0 76,0.22 76,0.22 0,0 9.61,10.26 9.61,10.26 0,0 -12.39,10.52 -12.39,10.52 0,0 -90.69,0.15 -90.69,0.15 0,0 -3.76,-3.44 -3.76,-3.44 z" />
        <path
           class = "e"
           d="m 65.34,255.85 c 0,0 2.13,-15.41 2.13,-15.41 0,0 69.87,-52.76 69.87,-52.76 0,0 14.41,0.09 14.41,0.09 0,0 -1.89,14.43 -1.89,14.43 0,0 -69.37,53.51 -69.37,53.51 0,0 -15.15,0.14 -15.15,0.14 z" />
        <path
           class = "f"
           d="m 65.09,173.39 c 0,0 12.26,-10.48 12.26,-10.48 0,0 76,0.22 76,0.22 0,0 9.61,10.26 9.61,10.26 0,0 -12.39,10.52 -12.39,10.52 0,0 -75.66,-0.08 -75.66,-0.08 0,0 -9.82,-10.44 -9.82,-10.44 z" />
        <path
           class = "f"
           d="m 71.25,69.56 c 0,0 15.81,17.38 15.81,17.38 0,0 76.2,0.06 76.2,0.06 0,0 20.87,-17.52 20.87,-17.57 0,-0.04 -3.56,-3.47 -3.56,-3.47 0,0 -105.32,0.01 -105.32,0.01 0,0 -4,3.59 -4,3.59 z" />
        <path
           class = "f"
           d="m 61.82,169.73 c 0,0 -9.82,-8.46 -9.73,-8.46 0.09,0 11.18,-84.18 11.18,-84.18 0,0 4.37,-3.64 4.37,-3.64 0,0 15.27,15.64 15.27,15.64 0,0 -9.73,71.09 -9.73,71.09 0,0 -11.36,9.55 -11.36,9.55 z" />
        <path
           class = "f"
           d="m 60.83,176.7 c 0,0 -11.44,9.52 -11.44,9.52 0,0 -10.87,83.65 -10.87,83.65 0,0 2.65,3.83 2.65,3.83 0,0 19.79,-16.27 19.79,-16.27 0,0 9.06,-71.39 9.08,-71.39 0.03,0 -9.21,-9.34 -9.21,-9.34 z" />
        <path
           class = "e"
           d="m 32.91,374.13 c 0,0 3.09,3.52 3.09,3.52 0,0 105.57,-0.08 105.57,-0.08 0,0 3.56,-3.61 3.56,-3.61 0,0 -15.52,-16.87 -15.52,-16.87 0,0 -76.44,0.13 -76.44,0.13 0,0 -20.26,16.91 -20.26,16.91 z" />
        <path
           class = "e"
           d="m 154.65,274 c 0,0 -11.95,9.65 -11.95,9.65 0,0 -8.79,70.96 -8.79,70.96 0,0 15.22,16.09 15.22,16.09 0,0 3.78,-4.32 3.78,-4.32 0,0 10.34,-83.29 10.34,-83.32 0,-0.03 -8.6,-9.06 -8.6,-9.06 z" />
        <path
           class = "f"
           d="m 167.65,177 c 0,0 -11.95,9.65 -11.95,9.65 0,0 -9.2,72.6 -9.2,72.6 0,0 8.69,8.5 8.69,8.5 0,0 11.81,-9.19 11.81,-9.19 0,0 9.25,-72.47 9.25,-72.5 0,-0.03 -8.6,-9.06 -8.6,-9.06 z" />
        <path
           class = "e"
           d="m 186.38,73.06 c 0,0 3.56,3.69 3.56,3.69 0,0 -10.5,82.63 -10.5,82.63 0,0 -11.82,10.5 -11.82,10.5 0,0 -9.24,-9.26 -9.24,-9.26 0,0 8.56,-71.24 8.56,-71.24 0,0 19.44,-16.32 19.44,-16.32 z" />
      </g>
    </g>
    <g
       transform="translate(1096.5208,-408.49482)">
      <g
         transform="matrix(0.92602884,0,0,0.92602884,1.9041537,-56.897897)">
        <path
           class = "f"
           d="m 44.12,277.62 c 0,0 21.23,-17.71 21.23,-17.71 0,0 76,0.22 76,0.22 0,0 9.61,10.26 9.61,10.26 0,0 -12.39,10.52 -12.39,10.52 0,0 -90.69,0.15 -90.69,0.15 0,0 -3.76,-3.44 -3.76,-3.44 z" />
        <path
           class = "e"
           d="m 65.34,255.85 c 0,0 2.13,-15.41 2.13,-15.41 0,0 69.87,-52.76 69.87,-52.76 0,0 14.41,0.09 14.41,0.09 0,0 -1.89,14.43 -1.89,14.43 0,0 -69.37,53.51 -69.37,53.51 0,0 -15.15,0.14 -15.15,0.14 z" />
        <path
           class = "f"
           d="m 65.09,173.39 c 0,0 12.26,-10.48 12.26,-10.48 0,0 76,0.22 76,0.22 0,0 9.61,10.26 9.61,10.26 0,0 -12.39,10.52 -12.39,10.52 0,0 -75.66,-0.08 -75.66,-0.08 0,0 -9.82,-10.44 -9.82,-10.44 z" />
        <path
           class = "e"
           d="m 71.25,69.56 c 0,0 15.81,17.38 15.81,17.38 0,0 76.2,0.06 76.2,0.06 0,0 20.87,-17.52 20.87,-17.57 0,-0.04 -3.56,-3.47 -3.56,-3.47 0,0 -105.32,0.01 -105.32,0.01 0,0 -4,3.59 -4,3.59 z" />
        <path
           class = "e"
           d="m 61.82,169.73 c 0,0 -9.82,-8.46 -9.73,-8.46 0.09,0 11.18,-84.18 11.18,-84.18 0,0 4.37,-3.64 4.37,-3.64 0,0 15.27,15.64 15.27,15.64 0,0 -9.73,71.09 -9.73,71.09 0,0 -11.36,9.55 -11.36,9.55 z" />
        <path
           class = "f"
           d="m 60.83,176.7 c 0,0 -11.44,9.52 -11.44,9.52 0,0 -10.87,83.65 -10.87,83.65 0,0 2.65,3.83 2.65,3.83 0,0 19.79,-16.27 19.79,-16.27 0,0 9.06,-71.39 9.08,-71.39 0.03,0 -9.21,-9.34 -9.21,-9.34 z" />
        <path
           class = "f"
           d="m 32.91,374.13 c 0,0 3.09,3.52 3.09,3.52 0,0 105.57,-0.08 105.57,-0.08 0,0 3.56,-3.61 3.56,-3.61 0,0 -15.52,-16.87 -15.52,-16.87 0,0 -76.44,0.13 -76.44,0.13 0,0 -20.26,16.91 -20.26,16.91 z" />
        <path
           class = "f"
           d="m 154.65,274 c 0,0 -11.95,9.65 -11.95,9.65 0,0 -8.79,70.96 -8.79,70.96 0,0 15.22,16.09 15.22,16.09 0,0 3.78,-4.32 3.78,-4.32 0,0 10.34,-83.29 10.34,-83.32 0,-0.03 -8.6,-9.06 -8.6,-9.06 z" />
        <path
           class = "e"
           d="m 167.65,177 c 0,0 -11.95,9.65 -11.95,9.65 0,0 -9.2,72.6 -9.2,72.6 0,0 8.69,8.5 8.69,8.5 0,0 11.81,-9.19 11.81,-9.19 0,0 9.25,-72.47 9.25,-72.5 0,-0.03 -8.6,-9.06 -8.6,-9.06 z" />
        <path
           class = "e"
           d="m 186.38,73.06 c 0,0 3.56,3.69 3.56,3.69 0,0 -10.5,82.63 -10.5,82.63 0,0 -11.82,10.5 -11.82,10.5 0,0 -9.24,-9.26 -9.24,-9.26 0,0 8.56,-71.24 8.56,-71.24 0,0 19.44,-16.32 19.44,-16.32 z" />
      </g>
    </g>
    <g
       transform="translate(915.76051,-408.49482)">
      <g
         transform="matrix(0.92602884,0,0,0.92602884,1.9041537,-56.897897)">
        <path
           class = "f"
           d="m 44.12,277.62 c 0,0 21.23,-17.71 21.23,-17.71 0,0 76,0.22 76,0.22 0,0 9.61,10.26 9.61,10.26 0,0 -12.39,10.52 -12.39,10.52 0,0 -90.69,0.15 -90.69,0.15 0,0 -3.76,-3.44 -3.76,-3.44 z" />
        <path
           class = "f"
           d="m 65.34,255.85 c 0,0 2.13,-15.41 2.13,-15.41 0,0 69.87,-52.76 69.87,-52.76 0,0 14.41,0.09 14.41,0.09 0,0 -1.89,14.43 -1.89,14.43 0,0 -69.37,53.51 -69.37,53.51 0,0 -15.15,0.14 -15.15,0.14 z" />
        <path
           class = "e"
           d="m 65.09,173.39 c 0,0 12.26,-10.48 12.26,-10.48 0,0 76,0.22 76,0.22 0,0 9.61,10.26 9.61,10.26 0,0 -12.39,10.52 -12.39,10.52 0,0 -75.66,-0.08 -75.66,-0.08 0,0 -9.82,-10.44 -9.82,-10.44 z" />
        <path
           class = "e"
           d="m 71.25,69.56 c 0,0 15.81,17.38 15.81,17.38 0,0 76.2,0.06 76.2,0.06 0,0 20.87,-17.52 20.87,-17.57 0,-0.04 -3.56,-3.47 -3.56,-3.47 0,0 -105.32,0.01 -105.32,0.01 0,0 -4,3.59 -4,3.59 z" />
        <path
           class = "e"
           d="m 61.82,169.73 c 0,0 -9.82,-8.46 -9.73,-8.46 0.09,0 11.18,-84.18 11.18,-84.18 0,0 4.37,-3.64 4.37,-3.64 0,0 15.27,15.64 15.27,15.64 0,0 -9.73,71.09 -9.73,71.09 0,0 -11.36,9.55 -11.36,9.55 z" />
        <path
           class = "e"
           d="m 60.83,176.7 c 0,0 -11.44,9.52 -11.44,9.52 0,0 -10.87,83.65 -10.87,83.65 0,0 2.65,3.83 2.65,3.83 0,0 19.79,-16.27 19.79,-16.27 0,0 9.06,-71.39 9.08,-71.39 0.03,0 -9.21,-9.34 -9.21,-9.34 z" />
        <path
           class = "e"
           d="m 32.91,374.13 c 0,0 3.09,3.52 3.09,3.52 0,0 105.57,-0.08 105.57,-0.08 0,0 3.56,-3.61 3.56,-3.61 0,0 -15.52,-16.87 -15.52,-16.87 0,0 -76.44,0.13 -76.44,0.13 0,0 -20.26,16.91 -20.26,16.91 z" />
        <path
           class = "f"
           d="m 154.65,274 c 0,0 -11.95,9.65 -11.95,9.65 0,0 -8.79,70.96 -8.79,70.96 0,0 15.22,16.09 15.22,16.09 0,0 3.78,-4.32 3.78,-4.32 0,0 10.34,-83.29 10.34,-83.32 0,-0.03 -8.6,-9.06 -8.6,-9.06 z" />
        <path
           class = "f"
           d="m 167.65,177 c 0,0 -11.95,9.65 -11.95,9.65 0,0 -9.2,72.6 -9.2,72.6 0,0 8.69,8.5 8.69,8.5 0,0 11.81,-9.19 11.81,-9.19 0,0 9.25,-72.47 9.25,-72.5 0,-0.03 -8.6,-9.06 -8.6,-9.06 z" />
        <path
           class = "e"
           d="m 186.38,73.06 c 0,0 3.56,3.69 3.56,3.69 0,0 -10.5,82.63 -10.5,82.63 0,0 -11.82,10.5 -11.82,10.5 0,0 -9.24,-9.26 -9.24,-9.26 0,0 8.56,-71.24 8.56,-71.24 0,0 19.44,-16.32 19.44,-16.32 z" />
      </g>
    </g>
    <g
       transform="translate(735,-408.49482)">
      <g
         transform="matrix(0.92602884,0,0,0.92602884,1.9041537,-56.897897)">
        <path
           class = "f"
           d="m 44.12,277.62 c 0,0 21.23,-17.71 21.23,-17.71 0,0 76,0.22 76,0.22 0,0 9.61,10.26 9.61,10.26 0,0 -12.39,10.52 -12.39,10.52 0,0 -90.69,0.15 -90.69,0.15 0,0 -3.76,-3.44 -3.76,-3.44 z" />
        <path
           class = "e"
           d="m 65.34,255.85 c 0,0 2.13,-15.41 2.13,-15.41 0,0 69.87,-52.76 69.87,-52.76 0,0 14.41,0.09 14.41,0.09 0,0 -1.89,14.43 -1.89,14.43 0,0 -69.37,53.51 -69.37,53.51 0,0 -15.15,0.14 -15.15,0.14 z" />
        <path
           class = "f"
           d="m 65.09,173.39 c 0,0 12.26,-10.48 12.26,-10.48 0,0 76,0.22 76,0.22 0,0 9.61,10.26 9.61,10.26 0,0 -12.39,10.52 -12.39,10.52 0,0 -75.66,-0.08 -75.66,-0.08 0,0 -9.82,-10.44 -9.82,-10.44 z" />
        <path
           class = "e"
           d="m 71.25,69.56 c 0,0 15.81,17.38 15.81,17.38 0,0 76.2,0.06 76.2,0.06 0,0 20.87,-17.52 20.87,-17.57 0,-0.04 -3.56,-3.47 -3.56,-3.47 0,0 -105.32,0.01 -105.32,0.01 0,0 -4,3.59 -4,3.59 z" />
        <path
           class = "e"
           d="m 61.82,169.73 c 0,0 -9.82,-8.46 -9.73,-8.46 0.09,0 11.18,-84.18 11.18,-84.18 0,0 4.37,-3.64 4.37,-3.64 0,0 15.27,15.64 15.27,15.64 0,0 -9.73,71.09 -9.73,71.09 0,0 -11.36,9.55 -11.36,9.55 z" />
        <path
           class = "e"
           d="m 60.83,176.7 c 0,0 -11.44,9.52 -11.44,9.52 0,0 -10.87,83.65 -10.87,83.65 0,0 2.65,3.83 2.65,3.83 0,0 19.79,-16.27 19.79,-16.27 0,0 9.06,-71.39 9.08,-71.39 0.03,0 -9.21,-9.34 -9.21,-9.34 z" />
        <path
           class = "f"
           d="m 32.91,374.13 c 0,0 3.09,3.52 3.09,3.52 0,0 105.57,-0.08 105.57,-0.08 0,0 3.56,-3.61 3.56,-3.61 0,0 -15.52,-16.87 -15.52,-16.87 0,0 -76.44,0.13 -76.44,0.13 0,0 -20.26,16.91 -20.26,16.91 z" />
        <path
           class = "f"
           d="m 154.65,274 c 0,0 -11.95,9.65 -11.95,9.65 0,0 -8.79,70.96 -8.79,70.96 0,0 15.22,16.09 15.22,16.09 0,0 3.78,-4.32 3.78,-4.32 0,0 10.34,-83.29 10.34,-83.32 0,-0.03 -8.6,-9.06 -8.6,-9.06 z" />
        <path
           class = "f"
           d="m 167.65,177 c 0,0 -11.95,9.65 -11.95,9.65 0,0 -9.2,72.6 -9.2,72.6 0,0 8.69,8.5 8.69,8.5 0,0 11.81,-9.19 11.81,-9.19 0,0 9.25,-72.47 9.25,-72.5 0,-0.03 -8.6,-9.06 -8.6,-9.06 z" />
        <path
           class = "e"
           d="m 186.38,73.06 c 0,0 3.56,3.69 3.56,3.69 0,0 -10.5,82.63 -10.5,82.63 0,0 -11.82,10.5 -11.82,10.5 0,0 -9.24,-9.26 -9.24,-9.26 0,0 8.56,-71.24 8.56,-71.24 0,0 19.44,-16.32 19.44,-16.32 z" />
      </g>
    </g>
    <g
       transform="translate(554.23953,-408.49482)">
      <g
         transform="matrix(0.92602884,0,0,0.92602884,1.9041537,-56.897897)">
        <path
           class = "f"
           d="m 44.12,277.62 c 0,0 21.23,-17.71 21.23,-17.71 0,0 76,0.22 76,0.22 0,0 9.61,10.26 9.61,10.26 0,0 -12.39,10.52 -12.39,10.52 0,0 -90.69,0.15 -90.69,0.15 0,0 -3.76,-3.44 -3.76,-3.44 z" />
        <path
           class = "f"
           d="m 65.34,255.85 c 0,0 2.13,-15.41 2.13,-15.41 0,0 69.87,-52.76 69.87,-52.76 0,0 14.41,0.09 14.41,0.09 0,0 -1.89,14.43 -1.89,14.43 0,0 -69.37,53.51 -69.37,53.51 0,0 -15.15,0.14 -15.15,0.14 z" />
        <path
           class = "f"
           d="m 65.09,173.39 c 0,0 12.26,-10.48 12.26,-10.48 0,0 76,0.22 76,0.22 0,0 9.61,10.26 9.61,10.26 0,0 -12.39,10.52 -12.39,10.52 0,0 -75.66,-0.08 -75.66,-0.08 0,0 -9.82,-10.44 -9.82,-10.44 z" />
        <path
           class = "e"
           d="m 71.25,69.56 c 0,0 15.81,17.38 15.81,17.38 0,0 76.2,0.06 76.2,0.06 0,0 20.87,-17.52 20.87,-17.57 0,-0.04 -3.56,-3.47 -3.56,-3.47 0,0 -105.32,0.01 -105.32,0.01 0,0 -4,3.59 -4,3.59 z" />
        <path
           class = "e"
           d="m 61.82,169.73 c 0,0 -9.82,-8.46 -9.73,-8.46 0.09,0 11.18,-84.18 11.18,-84.18 0,0 4.37,-3.64 4.37,-3.64 0,0 15.27,15.64 15.27,15.64 0,0 -9.73,71.09 -9.73,71.09 0,0 -11.36,9.55 -11.36,9.55 z" />
        <path
           class = "e"
           d="m 60.83,176.7 c 0,0 -11.44,9.52 -11.44,9.52 0,0 -10.87,83.65 -10.87,83.65 0,0 2.65,3.83 2.65,3.83 0,0 19.79,-16.27 19.79,-16.27 0,0 9.06,-71.39 9.08,-71.39 0.03,0 -9.21,-9.34 -9.21,-9.34 z" />
        <path
           class = "e"
           d="m 32.91,374.13 c 0,0 3.09,3.52 3.09,3.52 0,0 105.57,-0.08 105.57,-0.08 0,0 3.56,-3.61 3.56,-3.61 0,0 -15.52,-16.87 -15.52,-16.87 0,0 -76.44,0.13 -76.44,0.13 0,0 -20.26,16.91 -20.26,16.91 z" />
        <path
           class = "e"
           d="m 154.65,274 c 0,0 -11.95,9.65 -11.95,9.65 0,0 -8.79,70.96 -8.79,70.96 0,0 15.22,16.09 15.22,16.09 0,0 3.78,-4.32 3.78,-4.32 0,0 10.34,-83.29 10.34,-83.32 0,-0.03 -8.6,-9.06 -8.6,-9.06 z" />
        <path
           class = "e"
           d="m 167.65,177 c 0,0 -11.95,9.65 -11.95,9.65 0,0 -9.2,72.6 -9.2,72.6 0,0 8.69,8.5 8.69,8.5 0,0 11.81,-9.19 11.81,-9.19 0,0 9.25,-72.47 9.25,-72.5 0,-0.03 -8.6,-9.06 -8.6,-9.06 z" />
        <path
           class = "e"
           d="m 186.38,73.06 c 0,0 3.56,3.69 3.56,3.69 0,0 -10.5,82.63 -10.5,82.63 0,0 -11.82,10.5 -11.82,10.5 0,0 -9.24,-9.26 -9.24,-9.26 0,0 8.56,-71.24 8.56,-71.24 0,0 19.44,-16.32 19.44,-16.32 z" />
      </g>
    </g>
    <g
       transform="translate(373.47909,-408.49482)">
      <g
         transform="matrix(0.92602884,0,0,0.92602884,1.9041537,-56.897897)">
        <path
           class = "e"
           d="m 44.12,277.62 c 0,0 21.23,-17.71 21.23,-17.71 0,0 76,0.22 76,0.22 0,0 9.61,10.26 9.61,10.26 0,0 -12.39,10.52 -12.39,10.52 0,0 -90.69,0.15 -90.69,0.15 0,0 -3.76,-3.44 -3.76,-3.44 z" />
        <path
           class = "e"
           d="m 65.34,255.85 c 0,0 2.13,-15.41 2.13,-15.41 0,0 69.87,-52.76 69.87,-52.76 0,0 14.41,0.09 14.41,0.09 0,0 -1.89,14.43 -1.89,14.43 0,0 -69.37,53.51 -69.37,53.51 0,0 -15.15,0.14 -15.15,0.14 z" />
        <path
           class = "e"
           d="m 65.09,173.39 c 0,0 12.26,-10.48 12.26,-10.48 0,0 76,0.22 76,0.22 0,0 9.61,10.26 9.61,10.26 0,0 -12.39,10.52 -12.39,10.52 0,0 -75.66,-0.08 -75.66,-0.08 0,0 -9.82,-10.44 -9.82,-10.44 z" />
        <path
           class = "e"
           d="m 71.25,69.56 c 0,0 15.81,17.38 15.81,17.38 0,0 76.2,0.06 76.2,0.06 0,0 20.87,-17.52 20.87,-17.57 0,-0.04 -3.56,-3.47 -3.56,-3.47 0,0 -105.32,0.01 -105.32,0.01 0,0 -4,3.59 -4,3.59 z" />
        <path
           class = "e"
           d="m 61.82,169.73 c 0,0 -9.82,-8.46 -9.73,-8.46 0.09,0 11.18,-84.18 11.18,-84.18 0,0 4.37,-3.64 4.37,-3.64 0,0 15.27,15.64 15.27,15.64 0,0 -9.73,71.09 -9.73,71.09 0,0 -11.36,9.55 -11.36,9.55 z" />
        <path
           class = "e"
           d="m 60.83,176.7 c 0,0 -11.44,9.52 -11.44,9.52 0,0 -10.87,83.65 -10.87,83.65 0,0 2.65,3.83 2.65,3.83 0,0 19.79,-16.27 19.79,-16.27 0,0 9.06,-71.39 9.08,-71.39 0.03,0 -9.21,-9.34 -9.21,-9.34 z" />
        <path
           class = "e"
           d="m 32.91,374.13 c 0,0 3.09,3.52 3.09,3.52 0,0 105.57,-0.08 105.57,-0.08 0,0 3.56,-3.61 3.56,-3.61 0,0 -15.52,-16.87 -15.52,-16.87 0,0 -76.44,0.13 -76.44,0.13 0,0 -20.26,16.91 -20.26,16.91 z" />
        <path
           class = "e"
           d="m 154.65,274 c 0,0 -11.95,9.65 -11.95,9.65 0,0 -8.79,70.96 -8.79,70.96 0,0 15.22,16.09 15.22,16.09 0,0 3.78,-4.32 3.78,-4.32 0,0 10.34,-83.29 10.34,-83.32 0,-0.03 -8.6,-9.06 -8.6,-9.06 z" />
        <path
           class = "f"
           d="m 167.65,177 c 0,0 -11.95,9.65 -11.95,9.65 0,0 -9.2,72.6 -9.2,72.6 0,0 8.69,8.5 8.69,8.5 0,0 11.81,-9.19 11.81,-9.19 0,0 9.25,-72.47 9.25,-72.5 0,-0.03 -8.6,-9.06 -8.6,-9.06 z" />
        <path
           class = "e"
           d="m 186.38,73.06 c 0,0 3.56,3.69 3.56,3.69 0,0 -10.5,82.63 -10.5,82.63 0,0 -11.82,10.5 -11.82,10.5 0,0 -9.24,-9.26 -9.24,-9.26 0,0 8.56,-71.24 8.56,-71.24 0,0 19.44,-16.32 19.44,-16.32 z" />
      </g>
    </g>
    <g
       transform="translate(192.71862,-408.49482)">
      <g
         transform="matrix(0.92602884,0,0,0.92602884,1.9041537,-56.897897)">
        <path
           class = "f"
           d="m 44.12,277.62 c 0,0 21.23,-17.71 21.23,-17.71 0,0 76,0.22 76,0.22 0,0 9.61,10.26 9.61,10.26 0,0 -12.39,10.52 -12.39,10.52 0,0 -90.69,0.15 -90.69,0.15 0,0 -3.76,-3.44 -3.76,-3.44 z" />
        <path
           class = "e"
           d="m 65.34,255.85 c 0,0 2.13,-15.41 2.13,-15.41 0,0 69.87,-52.76 69.87,-52.76 0,0 14.41,0.09 14.41,0.09 0,0 -1.89,14.43 -1.89,14.43 0,0 -69.37,53.51 -69.37,53.51 0,0 -15.15,0.14 -15.15,0.14 z" />
        <path
           class = "f"
           d="m 65.09,173.39 c 0,0 12.26,-10.48 12.26,-10.48 0,0 76,0.22 76,0.22 0,0 9.61,10.26 9.61,10.26 0,0 -12.39,10.52 -12.39,10.52 0,0 -75.66,-0.08 -75.66,-0.08 0,0 -9.82,-10.44 -9.82,-10.44 z" />
        <path
           class = "e"
           d="m 71.25,69.56 c 0,0 15.81,17.38 15.81,17.38 0,0 76.2,0.06 76.2,0.06 0,0 20.87,-17.52 20.87,-17.57 0,-0.04 -3.56,-3.47 -3.56,-3.47 0,0 -105.32,0.01 -105.32,0.01 0,0 -4,3.59 -4,3.59 z" />
        <path
           class = "e"
           d="m 61.82,169.73 c 0,0 -9.82,-8.46 -9.73,-8.46 0.09,0 11.18,-84.18 11.18,-84.18 0,0 4.37,-3.64 4.37,-3.64 0,0 15.27,15.64 15.27,15.64 0,0 -9.73,71.09 -9.73,71.09 0,0 -11.36,9.55 -11.36,9.55 z" />
        <path
           class = "f"
           d="m 60.83,176.7 c 0,0 -11.44,9.52 -11.44,9.52 0,0 -10.87,83.65 -10.87,83.65 0,0 2.65,3.83 2.65,3.83 0,0 19.79,-16.27 19.79,-16.27 0,0 9.06,-71.39 9.08,-71.39 0.03,0 -9.21,-9.34 -9.21,-9.34 z" />
        <path
           class = "e"
           d="m 32.91,374.13 c 0,0 3.09,3.52 3.09,3.52 0,0 105.57,-0.08 105.57,-0.08 0,0 3.56,-3.61 3.56,-3.61 0,0 -15.52,-16.87 -15.52,-16.87 0,0 -76.44,0.13 -76.44,0.13 0,0 -20.26,16.91 -20.26,16.91 z" />
        <path
           class = "e"
           d="m 154.65,274 c 0,0 -11.95,9.65 -11.95,9.65 0,0 -8.79,70.96 -8.79,70.96 0,0 15.22,16.09 15.22,16.09 0,0 3.78,-4.32 3.78,-4.32 0,0 10.34,-83.29 10.34,-83.32 0,-0.03 -8.6,-9.06 -8.6,-9.06 z" />
        <path
           class = "f"
           d="m 167.65,177 c 0,0 -11.95,9.65 -11.95,9.65 0,0 -9.2,72.6 -9.2,72.6 0,0 8.69,8.5 8.69,8.5 0,0 11.81,-9.19 11.81,-9.19 0,0 9.25,-72.47 9.25,-72.5 0,-0.03 -8.6,-9.06 -8.6,-9.06 z" />
        <path
           class = "e"
           d="m 186.38,73.06 c 0,0 3.56,3.69 3.56,3.69 0,0 -10.5,82.63 -10.5,82.63 0,0 -11.82,10.5 -11.82,10.5 0,0 -9.24,-9.26 -9.24,-9.26 0,0 8.56,-71.24 8.56,-71.24 0,0 19.44,-16.32 19.44,-16.32 z" />
      </g>
    </g>
    <g
       transform="translate(1458.0418,-37.005178)">
      <g
         transform="matrix(0.92602884,0,0,0.92602884,1.9041537,-56.897897)">
        <path
           class = "e"
           d="m 44.12,277.62 c 0,0 21.23,-17.71 21.23,-17.71 0,0 76,0.22 76,0.22 0,0 9.61,10.26 9.61,10.26 0,0 -12.39,10.52 -12.39,10.52 0,0 -90.69,0.15 -90.69,0.15 0,0 -3.76,-3.44 -3.76,-3.44 z" />
        <path
           class = "e"
           d="m 65.34,255.85 c 0,0 2.13,-15.41 2.13,-15.41 0,0 69.87,-52.76 69.87,-52.76 0,0 14.41,0.09 14.41,0.09 0,0 -1.89,14.43 -1.89,14.43 0,0 -69.37,53.51 -69.37,53.51 0,0 -15.15,0.14 -15.15,0.14 z" />
        <path
           class = "f"
           d="m 65.09,173.39 c 0,0 12.26,-10.48 12.26,-10.48 0,0 76,0.22 76,0.22 0,0 9.61,10.26 9.61,10.26 0,0 -12.39,10.52 -12.39,10.52 0,0 -75.66,-0.08 -75.66,-0.08 0,0 -9.82,-10.44 -9.82,-10.44 z" />
        <path
           class = "f"
           d="m 71.25,69.56 c 0,0 15.81,17.38 15.81,17.38 0,0 76.2,0.06 76.2,0.06 0,0 20.87,-17.52 20.87,-17.57 0,-0.04 -3.56,-3.47 -3.56,-3.47 0,0 -105.32,0.01 -105.32,0.01 0,0 -4,3.59 -4,3.59 z" />
        <path
           class = "f"
           d="m 61.82,169.73 c 0,0 -9.82,-8.46 -9.73,-8.46 0.09,0 11.18,-84.18 11.18,-84.18 0,0 4.37,-3.64 4.37,-3.64 0,0 15.27,15.64 15.27,15.64 0,0 -9.73,71.09 -9.73,71.09 0,0 -11.36,9.55 -11.36,9.55 z" />
        <path
           class = "f"
           d="m 60.83,176.7 c 0,0 -11.44,9.52 -11.44,9.52 0,0 -10.87,83.65 -10.87,83.65 0,0 2.65,3.83 2.65,3.83 0,0 19.79,-16.27 19.79,-16.27 0,0 9.06,-71.39 9.08,-71.39 0.03,0 -9.21,-9.34 -9.21,-9.34 z" />
        <path
           class = "e"
           d="m 32.91,374.13 c 0,0 3.09,3.52 3.09,3.52 0,0 105.57,-0.08 105.57,-0.08 0,0 3.56,-3.61 3.56,-3.61 0,0 -15.52,-16.87 -15.52,-16.87 0,0 -76.44,0.13 -76.44,0.13 0,0 -20.26,16.91 -20.26,16.91 z" />
        <path
           class = "e"
           d="m 154.65,274 c 0,0 -11.95,9.65 -11.95,9.65 0,0 -8.79,70.96 -8.79,70.96 0,0 15.22,16.09 15.22,16.09 0,0 3.78,-4.32 3.78,-4.32 0,0 10.34,-83.29 10.34,-83.32 0,-0.03 -8.6,-9.06 -8.6,-9.06 z" />
        <path
           class = "e"
           d="m 167.65,177 c 0,0 -11.95,9.65 -11.95,9.65 0,0 -9.2,72.6 -9.2,72.6 0,0 8.69,8.5 8.69,8.5 0,0 11.81,-9.19 11.81,-9.19 0,0 9.25,-72.47 9.25,-72.5 0,-0.03 -8.6,-9.06 -8.6,-9.06 z" />
        <path
           class = "e"
           d="m 186.38,73.06 c 0,0 3.56,3.69 3.56,3.69 0,0 -10.5,82.63 -10.5,82.63 0,0 -11.82,10.5 -11.82,10.5 0,0 -9.24,-9.26 -9.24,-9.26 0,0 8.56,-71.24 8.56,-71.24 0,0 19.44,-16.32 19.44,-16.32 z" />
      </g>
    </g>
    <g
       transform="translate(11.958158,-37.005178)">
      <g
         transform="matrix(0.92602884,0,0,0.92602884,1.9041537,-56.897897)">
        <path
           class = "e"
           d="m 44.12,277.62 c 0,0 21.23,-17.71 21.23,-17.71 0,0 76,0.22 76,0.22 0,0 9.61,10.26 9.61,10.26 0,0 -12.39,10.52 -12.39,10.52 0,0 -90.69,0.15 -90.69,0.15 0,0 -3.76,-3.44 -3.76,-3.44 z" />
        <path
           class = "e"
           d="m 65.34,255.85 c 0,0 2.13,-15.41 2.13,-15.41 0,0 69.87,-52.76 69.87,-52.76 0,0 14.41,0.09 14.41,0.09 0,0 -1.89,14.43 -1.89,14.43 0,0 -69.37,53.51 -69.37,53.51 0,0 -15.15,0.14 -15.15,0.14 z" />
        <path
           class = "f"
           d="m 65.09,173.39 c 0,0 12.26,-10.48 12.26,-10.48 0,0 76,0.22 76,0.22 0,0 9.61,10.26 9.61,10.26 0,0 -12.39,10.52 -12.39,10.52 0,0 -75.66,-0.08 -75.66,-0.08 0,0 -9.82,-10.44 -9.82,-10.44 z" />
        <path
           class = "e"
           d="m 71.25,69.56 c 0,0 15.81,17.38 15.81,17.38 0,0 76.2,0.06 76.2,0.06 0,0 20.87,-17.52 20.87,-17.57 0,-0.04 -3.56,-3.47 -3.56,-3.47 0,0 -105.32,0.01 -105.32,0.01 0,0 -4,3.59 -4,3.59 z" />
        <path
           class = "f"
           d="m 61.82,169.73 c 0,0 -9.82,-8.46 -9.73,-8.46 0.09,0 11.18,-84.18 11.18,-84.18 0,0 4.37,-3.64 4.37,-3.64 0,0 15.27,15.64 15.27,15.64 0,0 -9.73,71.09 -9.73,71.09 0,0 -11.36,9.55 -11.36,9.55 z" />
        <path
           class = "f"
           d="m 60.83,176.7 c 0,0 -11.44,9.52 -11.44,9.52 0,0 -10.87,83.65 -10.87,83.65 0,0 2.65,3.83 2.65,3.83 0,0 19.79,-16.27 19.79,-16.27 0,0 9.06,-71.39 9.08,-71.39 0.03,0 -9.21,-9.34 -9.21,-9.34 z" />
        <path
           class = "e"
           d="m 32.91,374.13 c 0,0 3.09,3.52 3.09,3.52 0,0 105.57,-0.08 105.57,-0.08 0,0 3.56,-3.61 3.56,-3.61 0,0 -15.52,-16.87 -15.52,-16.87 0,0 -76.44,0.13 -76.44,0.13 0,0 -20.26,16.91 -20.26,16.91 z" />
        <path
           class = "e"
           d="m 154.65,274 c 0,0 -11.95,9.65 -11.95,9.65 0,0 -8.79,70.96 -8.79,70.96 0,0 15.22,16.09 15.22,16.09 0,0 3.78,-4.32 3.78,-4.32 0,0 10.34,-83.29 10.34,-83.32 0,-0.03 -8.6,-9.06 -8.6,-9.06 z" />
        <path
           class = "f"
           d="m 167.65,177 c 0,0 -11.95,9.65 -11.95,9.65 0,0 -9.2,72.6 -9.2,72.6 0,0 8.69,8.5 8.69,8.5 0,0 11.81,-9.19 11.81,-9.19 0,0 9.25,-72.47 9.25,-72.5 0,-0.03 -8.6,-9.06 -8.6,-9.06 z" />
        <path
           class = "f"
           d="m 186.38,73.06 c 0,0 3.56,3.69 3.56,3.69 0,0 -10.5,82.63 -10.5,82.63 0,0 -11.82,10.5 -11.82,10.5 0,0 -9.24,-9.26 -9.24,-9.26 0,0 8.56,-71.24 8.56,-71.24 0,0 19.44,-16.32 19.44,-16.32 z" />
      </g>
    </g>
  </g>
</svg>
